<?xml version="1.0" standalone="no"?>
<!DOCTYPE svg PUBLIC "-//W3C//DTD SVG 20010904//EN"
 "http://www.w3.org/TR/2001/REC-SVG-20010904/DTD/svg10.dtd">
<svg version="1.0" xmlns="http://www.w3.org/2000/svg"
 width="1588.000000pt" height="295.000000pt" viewBox="0 0 1588.000000 295.000000"
 preserveAspectRatio="xMidYMid meet">

<g transform="translate(0.000000,295.000000) scale(0.100000,-0.100000)"
fill="#000000" stroke="none">
<path d="M14845 2923 c-420 -89 -717 -505 -665 -929 45 -363 293 -644 650
-735 94 -24 279 -27 373 -5 327 76 569 313 649 636 29 116 29 292 -1 405 -25
93 -81 218 -128 284 -123 172 -322 303 -525 345 -96 20 -259 19 -353 -1z m251
-162 c42 -19 70 -53 128 -154 41 -71 62 -81 191 -88 74 -4 120 -11 142 -22 49
-26 76 -72 81 -136 3 -52 0 -64 -48 -155 -62 -117 -62 -130 1 -238 35 -59 44
-84 47 -133 3 -50 0 -65 -20 -94 -45 -66 -66 -75 -197 -81 -82 -5 -126 -11
-142 -22 -13 -8 -45 -51 -71 -94 -67 -114 -106 -144 -184 -144 -77 0 -119 33
-182 145 -57 101 -68 107 -210 115 -109 5 -122 8 -154 32 -74 56 -88 146 -38
238 85 155 86 168 19 281 -54 91 -63 162 -27 223 37 64 74 79 204 85 137 7
145 12 217 131 42 69 60 89 97 108 54 27 92 28 146 3z"/>
<path d="M2827 1710 c-440 -54 -768 -446 -744 -890 17 -319 196 -588 481 -725
136 -65 205 -80 371 -80 115 1 154 5 219 23 146 42 269 114 377 222 334 332
333 877 -3 1207 -81 81 -136 120 -234 166 -144 67 -316 96 -467 77z m185 -431
c175 -37 313 -182 336 -354 27 -212 -88 -397 -289 -465 -52 -18 -81 -21 -151
-18 -75 4 -96 9 -161 41 -189 93 -280 303 -218 505 62 205 277 334 483 291z"/>
<path d="M13551 1709 c-303 -39 -578 -256 -685 -540 -44 -117 -59 -220 -53
-349 7 -135 24 -204 78 -320 83 -176 219 -315 394 -400 148 -72 202 -84 380
-84 153 0 234 14 338 58 l37 16 0 229 0 230 -57 -35 c-89 -53 -172 -76 -283
-76 -158 0 -281 59 -367 176 -151 204 -88 487 137 619 140 82 360 72 513 -23
27 -17 50 -30 53 -30 2 0 4 103 4 229 l0 228 -92 31 c-88 29 -236 53 -303 51
-16 -1 -59 -5 -94 -10z"/>
<path d="M7 1683 c-4 -3 -7 -375 -7 -825 l0 -818 220 0 220 0 0 317 0 317 245
-244 245 -244 243 242 c133 133 245 242 250 242 4 0 7 -142 7 -315 l0 -315
215 0 215 0 0 819 c0 600 -3 822 -11 827 -7 4 -190 -174 -462 -450 l-450 -457
-456 455 c-251 251 -459 456 -462 456 -3 0 -9 -3 -12 -7z"/>
<path d="M4007 1683 c-4 -3 -7 -375 -7 -825 l0 -818 220 0 220 0 2 383 3 384
473 -385 c301 -244 478 -382 487 -378 13 5 15 115 15 826 l0 820 -220 0 -220
0 -2 -386 -3 -386 -475 386 c-261 212 -478 386 -481 386 -3 0 -9 -3 -12 -7z"/>
<path d="M5600 1480 l0 -210 225 0 225 0 0 -615 0 -615 220 0 220 0 0 615 0
615 225 0 225 0 0 210 0 210 -670 0 -670 0 0 -210z"/>
<path d="M7120 865 l0 -825 388 0 c236 0 412 4 448 11 221 40 384 236 384 463
0 132 -38 234 -121 321 -49 52 -49 52 -29 70 36 33 88 120 110 186 18 53 21
81 18 160 -3 87 -7 103 -41 173 -69 139 -184 225 -337 252 -54 9 -181 13 -447
14 l-373 0 0 -825z m689 485 c128 -36 153 -212 41 -287 -30 -21 -44 -23 -181
-23 l-149 0 0 153 c0 85 3 157 7 160 10 11 244 8 282 -3z m31 -632 c120 -61
117 -234 -3 -292 -27 -12 -66 -16 -176 -16 l-141 0 0 158 c0 87 3 162 7 165 3
4 65 7 138 7 116 0 136 -3 175 -22z"/>
<path d="M8570 865 l0 -825 440 0 440 0 0 210 0 210 -225 0 -225 0 0 615 0
615 -215 0 -215 0 0 -825z"/>
<path d="M10287 1663 c-8 -15 -180 -383 -382 -818 -202 -434 -369 -793 -372
-797 -2 -5 103 -8 234 -8 l238 0 150 334 c83 184 152 332 155 331 3 -2 72
-152 155 -334 l150 -331 232 0 c128 0 233 3 233 8 0 17 -759 1637 -768 1640
-6 2 -17 -9 -25 -25z"/>
<path d="M11177 1684 c-4 -4 -7 -376 -7 -826 l0 -818 215 0 215 0 2 386 3 387
475 -387 c261 -212 482 -385 490 -383 13 2 15 101 15 822 l0 820 -217 3 -218
2 0 -386 c0 -212 -4 -384 -8 -382 -5 2 -219 174 -476 383 -258 209 -471 381
-475 383 -4 1 -10 -1 -14 -4z"/>
</g>
</svg>
