<?xml version="1.0" standalone="no"?>
<!DOCTYPE svg PUBLIC "-//W3C//DTD SVG 20010904//EN"
 "http://www.w3.org/TR/2001/REC-SVG-20010904/DTD/svg10.dtd">
<svg version="1.0" xmlns="http://www.w3.org/2000/svg"
 width="512.000000pt" height="512.000000pt" viewBox="0 0 512.000000 512.000000"
 preserveAspectRatio="xMidYMid meet">

<g transform="translate(0.000000,512.000000) scale(0.100000,-0.100000)"
fill="#000000" stroke="none">
<path d="M1877 3835 l-687 -1285 88 -133 c308 -461 460 -855 517 -1342 23
-198 40 -175 -135 -175 l-150 0 0 -450 0 -450 1050 0 1050 0 0 450 0 450 -145
0 -145 0 0 33 c0 54 29 275 51 382 72 361 225 721 455 1067 l114 170 -24 42
c-13 22 -322 599 -686 1281 -365 682 -663 1241 -664 1242 -1 2 -311 -576 -689
-1282z m533 -247 l0 -603 -53 -28 c-93 -48 -179 -145 -214 -241 -91 -253 52
-523 314 -591 205 -53 413 46 511 244 36 73 37 77 37 191 0 114 -1 118 -37
191 -43 87 -119 166 -198 207 l-55 29 -3 603 c-1 405 1 601 8 594 5 -5 203
-371 439 -813 l429 -803 -62 -96 c-219 -339 -368 -704 -446 -1092 -29 -144
-60 -371 -60 -442 l0 -38 -453 0 -454 0 -12 128 c-49 512 -215 997 -482 1416
l-79 125 432 810 c238 446 434 811 436 811 1 0 2 -271 2 -602z m220 -897 c107
-56 107 -210 0 -263 -112 -57 -242 44 -210 163 27 99 125 146 210 100z m680
-2241 l0 -150 -750 0 -750 0 0 150 0 150 750 0 750 0 0 -150z"/>
</g>
</svg>
