<?xml version="1.0" standalone="no"?>
<!DOCTYPE svg PUBLIC "-//W3C//DTD SVG 20010904//EN"
 "http://www.w3.org/TR/2001/REC-SVG-20010904/DTD/svg10.dtd">
<svg version="1.0" xmlns="http://www.w3.org/2000/svg"
 width="1280.000000pt" height="901.000000pt" viewBox="0 0 1280.000000 901.000000"
 preserveAspectRatio="xMidYMid meet">

<g transform="translate(0.000000,901.000000) scale(0.100000,-0.100000)"
fill="#ffffff" stroke="none">
<path d="M5315 8999 c-2171 -35 -3571 -135 -4010 -286 -471 -163 -860 -559
-1014 -1033 -210 -647 -333 -2481 -271 -4035 44 -1087 142 -1927 272 -2317
135 -410 427 -746 813 -937 230 -114 479 -171 980 -225 1227 -133 3794 -196
5945 -146 1775 41 2906 120 3395 235 507 119 931 484 1123 968 75 187 143 515
196 947 58 467 56 383 56 2356 0 1759 -1 1828 -20 2025 -58 580 -143 1017
-243 1253 -172 407 -498 720 -917 881 -204 79 -533 135 -1085 185 -1189 106
-3337 159 -5220 129z m1512 -3527 c915 -526 1663 -961 1664 -966 1 -9 -3317
-1925 -3333 -1926 -5 0 -8 866 -8 1925 0 1059 3 1925 8 1925 4 0 755 -431
1669 -958z"/>
</g>
</svg>
